<?xml version="1.0" standalone="no"?><!DOCTYPE svg PUBLIC "-//W3C//DTD SVG 1.1//EN" "http://www.w3.org/Graphics/SVG/1.1/DTD/svg11.dtd"><svg t="1695822560854" class="icon" viewBox="0 0 1024 1024" version="1.1" xmlns="http://www.w3.org/2000/svg" p-id="8818" xmlns:xlink="http://www.w3.org/1999/xlink" width="200" height="200"><path d="M512 35.57L99.41 273.78v476.43L512 988.43l412.6-238.22V273.78L512 35.57z m350.99 672.17L512.2 910.27 161.42 707.74V302.68L512.2 100.16l350.79 202.52v405.06z" fill="#333333" p-id="8819"></path><path d="M482.36 46.09h59.28v957.42h-59.28z" fill="#333333" p-id="8820"></path><path d="M82.817 724.96L911.464 245.39l29.694 51.306L112.51 776.267z" fill="#333333" p-id="8821"></path><path d="M82.816 296.642l29.693-51.307 828.647 479.572-29.693 51.307z" fill="#333333" p-id="8822"></path><path d="M431.95 512c0 44.21 35.84 80.05 80.05 80.05 44.21 0 80.05-35.84 80.05-80.05 0-44.21-35.84-80.05-80.05-80.05-44.21 0-80.05 35.84-80.05 80.05z m0 0M824.15 729.82c0 40.21 32.6 72.82 72.82 72.82 40.22 0 72.82-32.6 72.82-72.82 0-40.22-32.6-72.82-72.82-72.82-40.21 0-72.82 32.6-72.82 72.82z m0 0M824.15 288.82c0 40.21 32.6 72.82 72.82 72.82 40.22 0 72.82-32.6 72.82-72.82 0-40.22-32.6-72.82-72.82-72.82-40.21 0-72.82 32.6-72.82 72.82z m0 0M53.15 729.82c0 40.21 32.6 72.82 72.82 72.82 40.22 0 72.82-32.6 72.82-72.82 0-40.22-32.6-72.82-72.82-72.82-40.21 0-72.82 32.6-72.82 72.82z m0 0M53.15 288.82c0 40.21 32.6 72.82 72.82 72.82 40.22 0 72.82-32.6 72.82-72.82 0-40.22-32.6-72.82-72.82-72.82-40.21 0-72.82 32.6-72.82 72.82z m0 0M439.15 74.82c0 40.21 32.6 72.82 72.82 72.82 40.22 0 72.82-32.6 72.82-72.82C584.78 34.6 552.19 2 511.97 2c-40.21 0-72.82 32.6-72.82 72.82z m0 0M439.15 950.82c0 40.21 32.6 72.82 72.82 72.82 40.22 0 72.82-32.6 72.82-72.82 0-40.22-32.6-72.82-72.82-72.82-40.21 0-72.82 32.6-72.82 72.82z m0 0" fill="#333333" p-id="8823"></path></svg>